<?xml version="1.0" encoding="utf-8"?>
<!-- Generator: Adobe Illustrator 24.2.3, SVG Export Plug-In . SVG Version: 6.00 Build 0)  -->
<svg version="1.1" id="Layer_1" xmlns="http://www.w3.org/2000/svg" xmlns:xlink="http://www.w3.org/1999/xlink" x="0px" y="0px"
	 viewBox="0 0 800 212" style="enable-background:new 0 0 800 212;" xml:space="preserve">
<style type="text/css">
	.st0{fill:none;}
	.st1{fill:#D3D3D3;}
	.st2{fill:#A6A6A6;}
	.st3{fill:#727272;}
	.st4{fill:#444444;}
	.st5{fill:#282828;}
	.st6{fill:#595959;}
	.st7{fill:#A5A5A5;}
	.st8{fill:#7F7F7F;}
	.st9{fill:#666666;}
	.st10{fill:#EDEDED;}
	.st11{fill:#2B2B2B;}
	.st12{fill:#939393;}
	.st13{fill:#C9C9C9;}
	.st14{fill:#6D6D6D;}
	.st15{fill:#757575;}
	.st16{fill:#212121;}
	.st17{fill:#3A3A3A;}
	.st18{fill:#191919;}
	.st19{fill:#292929;}
	.st20{fill:#013A01;}
	.st21{fill:#003500;}
	.st22{fill:#013F01;}
	.st23{fill:#148400;}
	.st24{fill:#00C900;}
	.st25{fill:#0D6600;}
	.st26{fill:#009900;}
	.st27{fill:#00A600;}
	.st28{fill:#008C00;}
	.st29{fill:#00EF00;}
	.st30{fill:#00FF00;}
	.st31{fill:#6CFF6C;}
	.st32{fill:#A5F9A5;}
	.st33{fill:#00D800;}
	.st34{fill:#00E200;}
	.st35{fill:#00CC00;}
	.st36{fill:#008200;}
	.st37{fill:#0C7A00;}
	.st38{fill:#002800;}
	.st39{fill:#031600;}
	.st40{fill:#020C00;}
	.st41{fill:#111111;}
	.st42{fill:#161616;}
	.st43{fill:#0F0F0F;}
	.st44{fill:#0C0C0C;}
	.st45{fill:#010600;}
	.st46{fill:#141414;}
	.st47{fill:#0A0A0A;}
	.st48{fill:#353535;}
	.st49{fill:#AFAFAF;}
</style>
<rect x="-0.3" y="-0.6" class="st0" width="801.9" height="259.3"/>
<g id="Layer_1-2" transform="matrix(1.384216, 0, 0, 1.384216, -154.181976, -48.296314)">
	<polygon class="st1" points="221.8,35.3 112.1,44.6 211.3,46.5 	"/>
	<polygon class="st1" points="221.8,35.3 112.1,44.6 211.3,46.5 	"/>
	<polygon class="st2" points="221.8,35.3 211.3,46.5 248.9,60.2 	"/>
	<polygon class="st2" points="221.8,35.3 211.3,46.5 248.9,60.2 	"/>
	<polygon class="st2" points="291.6,99.6 211.3,46.5 248.9,60.2 	"/>
	<polygon class="st2" points="291.6,99.6 211.3,46.5 248.9,60.2 	"/>
	<polygon class="st3" points="291.6,99.6 211.3,46.5 245.3,85.5 	"/>
	<polygon class="st3" points="291.6,99.6 211.3,46.5 245.3,85.5 	"/>
	<polygon class="st4" points="291.6,99.6 285.6,108.4 245.3,85.5 	"/>
	<polygon class="st4" points="291.6,99.6 285.6,108.4 245.3,85.5 	"/>
	<polygon class="st5" points="291.6,99.6 285.6,108.4 283.9,142.6 	"/>
	<polygon class="st5" points="291.6,99.6 285.6,108.4 283.9,142.6 	"/>
	<polygon class="st6" points="279.2,144 285.6,108.4 283.9,142.6 	"/>
	<polygon class="st6" points="279.2,144 285.6,108.4 283.9,142.6 	"/>
	<polygon class="st7" points="279.2,144 285.6,108.4 282,108.4 	"/>
	<polygon class="st7" points="279.2,144 285.6,108.4 282,108.4 	"/>
	<polygon class="st3" points="223.6,65.6 211.3,46.5 245.3,85.5 	"/>
	<polygon class="st3" points="223.6,65.6 211.3,46.5 245.3,85.5 	"/>
	<polygon class="st3" points="223.6,65.6 209.2,64.9 245.3,85.5 	"/>
	<polygon class="st3" points="223.6,65.6 209.2,64.9 245.3,85.5 	"/>
	<polygon class="st8" points="223.6,65.6 211.3,46.5 112.1,44.6 	"/>
	<polygon class="st8" points="223.6,65.6 211.3,46.5 112.1,44.6 	"/>
	<polygon class="st9" points="143.2,95.5 152.1,67.8 112.1,44.6 	"/>
	<polygon class="st9" points="143.2,95.5 152.1,67.8 112.1,44.6 	"/>
	<polygon class="st10" points="129.5,77.4 143.2,95.5 112.1,44.6 	"/>
	<polygon class="st10" points="129.5,77.4 143.2,95.5 112.1,44.6 	"/>
	<polygon class="st1" points="143.2,95.5 129.5,77.4 139.4,135.7 	"/>
	<polygon class="st1" points="143.2,95.5 129.5,77.4 139.4,135.7 	"/>
	<polygon class="st11" points="143.2,95.5 152.1,67.8 155.9,119.8 	"/>
	<polygon class="st11" points="143.2,95.5 152.1,67.8 155.9,119.8 	"/>
	<polygon class="st7" points="143.2,95.5 147.1,117.7 155.9,119.8 	"/>
	<polygon class="st7" points="143.2,95.5 147.1,117.7 155.9,119.8 	"/>
	<polygon class="st7" points="143.2,95.5 147.1,117.7 139.4,135.7 	"/>
	<polygon class="st7" points="143.2,95.5 147.1,117.7 139.4,135.7 	"/>
	<polygon class="st12" points="175.8,154.4 147.1,117.7 139.4,135.7 	"/>
	<polygon class="st12" points="175.8,154.4 147.1,117.7 139.4,135.7 	"/>
	<polygon class="st13" points="215,187.5 175.8,154.4 139.4,135.7 	"/>
	<polygon class="st13" points="215,187.5 175.8,154.4 139.4,135.7 	"/>
	<polygon class="st14" points="175.8,154.4 147.1,117.7 211.3,162.3 	"/>
	<polygon class="st14" points="175.8,154.4 147.1,117.7 211.3,162.3 	"/>
	<polygon class="st4" points="155.9,119.8 147.1,117.7 211.3,162.3 	"/>
	<polygon class="st4" points="155.9,119.8 147.1,117.7 211.3,162.3 	"/>
	<polygon class="st8" points="215,187.5 211.3,162.3 175.8,154.4 	"/>
	<polygon class="st8" points="215,187.5 211.3,162.3 175.8,154.4 	"/>
	<polygon class="st15" points="215,187.5 223.6,170.8 211.3,162.3 	"/>
	<polygon class="st15" points="215,187.5 223.6,170.8 211.3,162.3 	"/>
	<polygon class="st16" points="259.1,159.1 215,187.5 282.1,152.2 	"/>
	<polygon class="st16" points="259.1,159.1 215,187.5 282.1,152.2 	"/>
	<polygon class="st17" points="259.1,159.1 283.6,143.9 282.1,152.2 	"/>
	<polygon class="st17" points="259.1,159.1 283.6,143.9 282.1,152.2 	"/>
	<polygon class="st17" points="223.6,170.8 215,187.5 259.1,159.1 	"/>
	<polygon class="st17" points="223.6,170.8 215,187.5 259.1,159.1 	"/>
	<polygon class="st17" points="259.1,159.1 222.1,166.7 223.6,170.8 	"/>
	<polygon class="st17" points="259.1,159.1 222.1,166.7 223.6,170.8 	"/>
	<polygon class="st18" points="211.3,162.3 222.1,166.7 223.6,170.8 	"/>
	<polygon class="st18" points="211.3,162.3 222.1,166.7 223.6,170.8 	"/>
	<polygon class="st6" points="259.1,159.1 222.1,166.7 283.6,143.9 	"/>
	<polygon class="st6" points="259.1,159.1 222.1,166.7 283.6,143.9 	"/>
	<polygon class="st19" points="209.2,64.9 223.6,65.6 112.1,44.6 	"/>
	<polygon class="st19" points="209.2,64.9 223.6,65.6 112.1,44.6 	"/>
	<polygon class="st20" points="184.8,70.3 184.8,82.7 164.2,74.8 	"/>
	<polygon class="st20" points="184.8,70.3 184.8,82.7 164.2,74.8 	"/>
	<polygon class="st21" points="184.8,70.3 184.8,82.7 225.2,92.4 	"/>
	<polygon class="st21" points="184.8,70.3 184.8,82.7 225.2,92.4 	"/>
	<polygon class="st22" points="164.2,93.3 184.8,82.7 164.2,74.8 	"/>
	<polygon class="st22" points="164.2,93.3 184.8,82.7 164.2,74.8 	"/>
	<polygon class="st23" points="164.2,93.3 164.2,121.8 184.8,82.7 	"/>
	<polygon class="st23" points="164.2,93.3 164.2,121.8 184.8,82.7 	"/>
	<polygon class="st24" points="220.5,162 164.2,121.8 200.3,131 	"/>
	<polygon class="st24" points="220.5,162 164.2,121.8 200.3,131 	"/>
	<polygon class="st25" points="220.5,162 273.4,138.8 246.9,137.6 	"/>
	<polygon class="st25" points="220.5,162 273.4,138.8 246.9,137.6 	"/>
	<polygon class="st26" points="227.4,129.3 259.1,117.7 246.9,137.6 	"/>
	<polygon class="st26" points="227.4,129.3 259.1,117.7 246.9,137.6 	"/>
	<polygon class="st27" points="227.4,129.3 259.1,117.7 241.6,98.3 	"/>
	<polygon class="st27" points="227.4,129.3 259.1,117.7 241.6,98.3 	"/>
	<polygon class="st28" points="279.2,108.4 259.1,117.7 241.6,98.3 	"/>
	<polygon class="st28" points="279.2,108.4 259.1,117.7 241.6,98.3 	"/>
	<polygon class="st29" points="227.4,129.3 198,107 200.3,131 	"/>
	<polygon class="st29" points="227.4,129.3 198,107 200.3,131 	"/>
	<polygon class="st30" points="227.4,129.3 198,107 220.5,99.6 	"/>
	<polygon class="st30" points="227.4,129.3 198,107 220.5,99.6 	"/>
	<polygon class="st31" points="227.4,129.3 225.2,92.4 220.5,99.6 	"/>
	<polygon class="st31" points="227.4,129.3 225.2,92.4 220.5,99.6 	"/>
	<polygon class="st32" points="184.8,82.7 225.2,92.4 220.5,99.6 	"/>
	<polygon class="st32" points="184.8,82.7 225.2,92.4 220.5,99.6 	"/>
	<polygon class="st33" points="200.3,131 164.2,121.8 198,107 	"/>
	<polygon class="st33" points="200.3,131 164.2,121.8 198,107 	"/>
	<polygon class="st34" points="220.5,99.6 184.8,82.7 198,107 	"/>
	<polygon class="st34" points="220.5,99.6 184.8,82.7 198,107 	"/>
	<polygon class="st35" points="164.2,121.8 184.8,82.7 198,107 	"/>
	<polygon class="st35" points="164.2,121.8 184.8,82.7 198,107 	"/>
	<polygon class="st34" points="200.3,131 220.5,162 227.4,129.3 	"/>
	<polygon class="st34" points="200.3,131 220.5,162 227.4,129.3 	"/>
	<polygon class="st28" points="246.9,137.6 220.5,162 227.4,129.3 	"/>
	<polygon class="st28" points="246.9,137.6 220.5,162 227.4,129.3 	"/>
	<polygon class="st36" points="246.9,137.6 273.4,138.8 259.1,117.7 	"/>
	<polygon class="st36" points="246.9,137.6 273.4,138.8 259.1,117.7 	"/>
	<polygon class="st37" points="259.1,117.7 279.2,108.4 273.4,138.8 	"/>
	<polygon class="st37" points="259.1,117.7 279.2,108.4 273.4,138.8 	"/>
	<polygon class="st38" points="184.8,70.3 224.9,86.5 225.2,92.4 	"/>
	<polygon class="st38" points="184.8,70.3 224.9,86.5 225.2,92.4 	"/>
	<polygon class="st38" points="279.2,108.4 243.6,94.1 241.6,98.3 	"/>
	<polygon class="st38" points="279.2,108.4 243.6,94.1 241.6,98.3 	"/>
	<polygon class="st39" points="227.4,129.3 241.6,98.3 225.2,92.4 	"/>
	<polygon class="st39" points="227.4,129.3 241.6,98.3 225.2,92.4 	"/>
	<polygon class="st40" points="243.6,94.1 241.6,98.3 225.2,92.4 	"/>
	<polygon class="st40" points="243.6,94.1 241.6,98.3 225.2,92.4 	"/>
	<polygon class="st40" points="243.6,94.1 224.9,86.5 225.2,92.4 	"/>
	<polygon class="st40" points="243.6,94.1 224.9,86.5 225.2,92.4 	"/>
	<polygon class="st41" points="184.8,70.3 152.1,67.8 165.8,62 	"/>
	<polygon class="st41" points="184.8,70.3 152.1,67.8 165.8,62 	"/>
	<polygon class="st42" points="152.1,67.8 165.8,62 112.1,44.6 	"/>
	<polygon class="st42" points="152.1,67.8 165.8,62 112.1,44.6 	"/>
	<polygon class="st41" points="165.8,62 209.2,64.9 112.1,44.6 	"/>
	<polygon class="st41" points="165.8,62 209.2,64.9 112.1,44.6 	"/>
	<polygon class="st42" points="184.8,70.3 209.2,64.9 165.8,62 	"/>
	<polygon class="st42" points="184.8,70.3 209.2,64.9 165.8,62 	"/>
	<polygon class="st43" points="184.8,70.3 209.2,64.9 224.9,86.5 	"/>
	<polygon class="st43" points="184.8,70.3 209.2,64.9 224.9,86.5 	"/>
	<polygon class="st44" points="245.3,85.5 209.2,64.9 224.9,86.5 	"/>
	<polygon class="st44" points="245.3,85.5 209.2,64.9 224.9,86.5 	"/>
	<polygon class="st41" points="245.3,85.5 243.6,94.1 224.9,86.5 	"/>
	<polygon class="st41" points="245.3,85.5 243.6,94.1 224.9,86.5 	"/>
	<polygon class="st45" points="184.8,70.3 152.1,67.8 164.2,74.8 	"/>
	<polygon class="st45" points="184.8,70.3 152.1,67.8 164.2,74.8 	"/>
	<polygon class="st46" points="155.9,119.8 152.1,67.8 164.2,74.8 	"/>
	<polygon class="st46" points="155.9,119.8 152.1,67.8 164.2,74.8 	"/>
	<polygon class="st43" points="155.9,119.8 164.2,121.8 164.2,74.8 	"/>
	<polygon class="st43" points="155.9,119.8 164.2,121.8 164.2,74.8 	"/>
	<polygon class="st18" points="155.9,119.8 164.2,121.8 211.3,162.3 	"/>
	<polygon class="st18" points="155.9,119.8 164.2,121.8 211.3,162.3 	"/>
	<polygon class="st18" points="220.5,162 164.2,121.8 211.3,162.3 	"/>
	<polygon class="st18" points="220.5,162 164.2,121.8 211.3,162.3 	"/>
	<polygon class="st18" points="220.5,162 222.1,166.7 211.3,162.3 	"/>
	<polygon class="st18" points="220.5,162 222.1,166.7 211.3,162.3 	"/>
	<polygon class="st16" points="220.5,162 222.1,166.7 273.4,138.8 	"/>
	<polygon class="st16" points="220.5,162 222.1,166.7 273.4,138.8 	"/>
	<polygon class="st44" points="245.3,85.5 243.6,94.1 279.2,108.4 	"/>
	<polygon class="st44" points="245.3,85.5 243.6,94.1 279.2,108.4 	"/>
	<polygon class="st6" points="245.3,85.5 282,108.4 285.6,108.4 	"/>
	<polygon class="st6" points="245.3,85.5 282,108.4 285.6,108.4 	"/>
	<polygon class="st41" points="245.3,85.5 282,108.4 279.2,108.4 	"/>
	<polygon class="st41" points="245.3,85.5 282,108.4 279.2,108.4 	"/>
	<polygon class="st47" points="273.4,138.8 282,108.4 279.2,108.4 	"/>
	<polygon class="st47" points="273.4,138.8 282,108.4 279.2,108.4 	"/>
	<polygon class="st41" points="273.4,138.8 282,108.4 279.2,144 	"/>
	<polygon class="st41" points="273.4,138.8 282,108.4 279.2,144 	"/>
	<polygon class="st48" points="279.2,144 222.1,166.7 273.4,138.8 	"/>
	<polygon class="st48" points="279.2,144 222.1,166.7 273.4,138.8 	"/>
	<polygon class="st49" points="279.2,144 222.1,166.7 283.6,143.9 	"/>
	<polygon class="st49" points="279.2,144 222.1,166.7 283.6,143.9 	"/>
	<polygon class="st48" points="279.2,144 283.9,142.6 283.6,143.9 	"/>
	<polygon class="st48" points="279.2,144 283.9,142.6 283.6,143.9 	"/>
	<polygon class="st30" points="491.1,113.7 529.8,113.7 532.1,100.8 480.5,100.8 474.9,133 513.4,133 512.3,139.4 473.8,139.4 
		471.4,152.3 522.9,152.3 528.7,120.1 490,120.1 	"/>
	<polygon class="st30" points="599.3,113.7 637.9,113.7 640.2,100.8 588.7,100.8 579.7,152.3 631.2,152.3 633.3,139.4 594.8,139.4 
		595.8,133 634.4,133 636.8,120.1 598.2,120.1 	"/>
	<polygon class="st30" points="642.8,100.8 640.4,113.7 672.7,113.7 671.6,120.1 639.3,120.1 637.1,133 659.7,133 665.8,152.3 
		678.8,152.3 672.4,133 682.2,133 687.8,100.8 	"/>
	<polygon class="st30" points="556.9,120.1 544.1,120.1 538.3,152.3 577.1,152.3 579.3,139.4 553.7,139.4 	"/>
	<polygon class="st30" points="534.7,100.8 532.3,113.7 583.8,113.7 586.2,100.8 	"/>
	<polygon class="st30" points="423,120.1 417.4,152.3 430.2,152.3 435.9,120.1 	"/>
	<polygon class="st30" points="477.9,100.8 426.4,100.8 424.1,113.7 462.9,113.7 456,152.3 468.9,152.3 	"/>
	<polygon class="st30" points="423.9,100.8 372.4,100.8 370.1,113.7 408.8,113.7 404.1,139.4 378.4,139.4 381.9,120.1 368.9,120.1 
		363.4,152.3 414.9,152.3 	"/>
	<polygon class="st30" points="369.9,100.8 305.4,100.8 303.1,113.7 328.9,113.7 322.1,152.3 334.9,152.3 341.8,113.7 354.6,113.7 
		347.9,152.3 360.8,152.3 	"/>
	<polygon class="st30" points="302,120.1 296.4,152.3 309.2,152.3 314.9,120.1 	"/>
</g>
</svg>
